# xmcd CD database file
#
# Track frame offsets:
#	150
#	17885
#	34938
#	47083
#	62130
#	72011
#	92420
#	108115
#	128369
#	144444
#	161622
#	178164
#	189492
#
# Disc length: 2806 seconds
#
# Revision: 1
# Processed by: cddbd v1.5.1PL0 Copyright (c) Steve Scherf et al.
# Submitted via: CDex 1.51
#
DISCID=a70af40d
DTITLE=Tony McLoughlin - Glory Bounds
DYEAR=9999
DGENRE=Blues
TTITLE0=You got my sign
TTITLE1=Romrod Rocking Blues
TTITLE2=Telephone Call Blues
TTITLE3=Turn the Music on 
TTITLE4=Jackson
TTITLE5=Real Light
TTITLE6=Mister Subtlety
TTITLE7=Glory Bound
TTITLE8=I came Running
TTITLE9=How Blue can you get
TTITLE10=Don`t do this thing
TTITLE11=Rockin Telephone call Blues
TTITLE12=Down on my Knees
EXTD=YEAR: 9999
EXTT0=
EXTT1=
EXTT2=
EXTT3=
EXTT4=
EXTT5=
EXTT6=
EXTT7=
EXTT8=
EXTT9=
EXTT10=
EXTT11=
EXTT12=
PLAYORDER=
